<svg xmlns="http://www.w3.org/2000/svg" xmlns:xlink="http://www.w3.org/1999/xlink" width="280" height="62" viewBox="0 0 280 62">
    <defs>
        <path id="egp7kigpna" d="M0 0L280 0 280 62 0 62z"/>
    </defs>
    <g fill="none" fill-rule="evenodd">
        <g>
            <g transform="translate(-820 -67) translate(820 67)">
                <mask id="1s31ttcr3b" fill="#fff">
                    <use xlink:href="#egp7kigpna"/>
                </mask>
                <path fill="#E57040" d="M102.61 34.02c-1.21 0-2.148.244-2.812.734-.664.489-.996 1.156-.996 2 0 .81.315 1.452.946 1.924.63.473 1.408.709 2.332.709 1.21 0 2.24-.333 3.09-1 .849-.667 1.273-1.515 1.273-2.545v-1.266c-1.277-.371-2.555-.557-3.833-.557zm2.8-4.001c-.673-.608-1.631-.911-2.876-.911-1.244 0-2.564.32-3.96.962l-.58-1.596c1.581-.725 3.162-1.088 4.742-1.088 1.782 0 3.152.447 4.11 1.342.959.894 1.438 2.202 1.438 3.924v8h-1.866v-1.974c-1.143 1.502-2.715 2.253-4.716 2.253-1.311 0-2.45-.362-3.417-1.088-.967-.726-1.45-1.73-1.45-3.013 0-1.368.504-2.418 1.513-3.152 1.009-.735 2.362-1.102 4.06-1.102 1.362 0 2.699.186 4.01.557v-.456c0-1.164-.336-2.05-1.009-2.658zm8.952 3.14v7.494h-1.942v-13.09h1.942v2.279c1.026-1.705 2.514-2.557 4.464-2.557 1.547 0 2.765.476 3.657 1.43.89.954 1.336 2.224 1.336 3.81v8.128h-1.942v-7.647c0-1.232-.315-2.198-.946-2.899-.63-.7-1.517-1.05-2.66-1.05-1.126 0-2.06.38-2.8 1.14-.739.759-1.109 1.746-1.109 2.962zm24.135.303c0-1.316-.475-2.388-1.425-3.215-.95-.827-2.072-1.24-3.367-1.24-1.278 0-2.35.404-3.215 1.214-.866.81-1.3 1.883-1.3 3.216 0 1.317.442 2.393 1.325 3.228.882.836 1.946 1.253 3.19 1.253 1.278 0 2.396-.417 3.354-1.253.959-.835 1.438-1.903 1.438-3.203zm1.866 4.912c0 2.076-.593 3.659-1.778 4.748-1.185 1.088-2.804 1.632-4.855 1.632-2.202 0-4.178-.607-5.926-1.822l.882-1.52c1.53 1.115 3.203 1.671 5.02 1.671 1.462 0 2.618-.4 3.467-1.202.849-.802 1.273-1.954 1.273-3.456V36.88c-1.378 1.84-3.085 2.76-5.12 2.76-1.647 0-3.08-.566-4.3-1.697-1.218-1.131-1.828-2.617-1.828-4.456 0-1.84.614-3.334 1.842-4.482 1.227-1.148 2.656-1.721 4.287-1.721 2.085 0 3.783.877 5.094 2.633v-2.355h1.942v10.811zm9.13-4.355c-1.211 0-2.149.245-2.813.735-.664.489-.996 1.156-.996 2 0 .81.315 1.452.946 1.924.63.473 1.408.709 2.332.709 1.211 0 2.241-.333 3.09-1 .849-.667 1.273-1.515 1.273-2.545v-1.266c-1.277-.371-2.555-.557-3.833-.557zm2.799-4c-.673-.608-1.631-.911-2.876-.911-1.244 0-2.564.32-3.959.962l-.58-1.596c1.58-.725 3.16-1.088 4.741-1.088 1.782 0 3.153.447 4.11 1.342.96.894 1.439 2.202 1.439 3.924v8H153.3v-1.974c-1.143 1.502-2.715 2.253-4.716 2.253-1.311 0-2.45-.362-3.417-1.088-.967-.726-1.45-1.73-1.45-3.013 0-1.368.504-2.418 1.513-3.152 1.009-.735 2.363-1.102 4.06-1.102 1.362 0 2.699.186 4.01.557v-.456c0-1.164-.336-2.05-1.008-2.658zm8.952 5.418v5.216h-1.942v-13.09h1.942v3.418c.505-1.13 1.22-2.034 2.144-2.71.924-.674 1.984-.986 3.178-.936v2.102h-.152c-1.496 0-2.732.523-3.707 1.57-.975 1.046-1.463 2.523-1.463 4.43zm18.511-1.291c0-1.435-.467-2.65-1.4-3.646-.933-.996-2.08-1.494-3.442-1.494-1.395 0-2.539.49-3.43 1.469-.891.979-1.336 2.185-1.336 3.62s.462 2.646 1.387 3.634c.924.987 2.068 1.48 3.43 1.48 1.395 0 2.542-.489 3.442-1.468.9-.979 1.349-2.177 1.349-3.595zm.05-4.874c1.295 1.325 1.942 2.933 1.942 4.823 0 1.89-.655 3.507-1.967 4.849-1.311 1.342-2.934 2.013-4.867 2.013-1.933 0-3.543-.663-4.83-1.988-1.286-1.325-1.929-2.933-1.929-4.823 0-1.89.652-3.507 1.955-4.849s2.92-2.012 4.854-2.012c1.934 0 3.548.662 4.843 1.987zm16.241 4.874c0-1.435-.466-2.65-1.4-3.646-.932-.996-2.08-1.494-3.442-1.494-1.395 0-2.538.49-3.43 1.469-.89.979-1.336 2.185-1.336 3.62s.462 2.646 1.387 3.634c.925.987 2.068 1.48 3.43 1.48 1.395 0 2.543-.489 3.442-1.468.9-.979 1.35-2.177 1.35-3.595zm.051-4.874c1.295 1.325 1.942 2.933 1.942 4.823 0 1.89-.656 3.507-1.967 4.849-1.312 1.342-2.934 2.013-4.868 2.013-1.933 0-3.543-.663-4.829-1.988-1.286-1.325-1.93-2.933-1.93-4.823 0-1.89.652-3.507 1.955-4.849s2.922-2.012 4.855-2.012c1.933 0 3.547.662 4.842 1.987zm5.548 11.38h3.102v-7.468h8.423v7.469h3.102V22.929h-3.102v7.368h-8.423V22.93h-3.102v17.724zm21.108-7.62c.278-2.076 1.59-3.52 3.455-3.52 2.018 0 3.178 1.545 3.38 3.52h-6.835zm3.809 7.925c2.446 0 4.186-.988 5.448-2.507l-1.792-1.595c-1.059 1.038-2.118 1.595-3.606 1.595-1.967 0-3.505-1.215-3.833-3.393h9.785c.026-.151.051-.658.051-.86 0-3.849-2.144-7.191-6.381-7.191-3.808 0-6.507 3.14-6.507 6.963 0 4.177 2.976 6.988 6.835 6.988zm17.351-5.14c0 1.671-1.514 2.81-3.532 2.81-1.437 0-2.572-.709-2.572-1.975 0-1.341 1.135-2.126 3.05-2.126 1.187 0 2.27.228 3.054.531v.76zm2.95 4.836v-7.925c0-3.57-1.917-5.646-5.85-5.646-2.169 0-3.606.455-5.07 1.114l.833 2.456c1.21-.507 2.32-.836 3.806-.836 2.12 0 3.28 1.013 3.28 2.861v.254c-1.035-.33-2.068-.557-3.682-.557-3.102 0-5.397 1.417-5.397 4.38 0 2.734 2.22 4.177 4.74 4.177 2.019 0 3.405-.835 4.314-1.924v1.646h3.025zm3.808 0h3.051V22.17h-3.05v18.483zm11.5.228c1.134 0 1.992-.253 2.75-.684v-2.506c-.606.303-1.211.455-1.893.455-1.033 0-1.639-.48-1.639-1.67v-6.558h3.58v-2.633h-3.58v-3.672h-3.05v3.672h-1.69v2.633h1.69v7.038c0 2.937 1.587 3.925 3.831 3.925zm5.877-.228h3.051v-7.545c0-2.076 1.234-3.317 3-3.317 1.817 0 2.85 1.19 2.85 3.266v7.596H280v-8.507c0-3.115-1.74-5.14-4.74-5.14-2.07 0-3.303 1.089-4.161 2.354v-7.19h-3.05v18.483zM0 15.253c10.366 5.882 18.514 8.031 28.714 5.942 6.853-1.742 10.61-4.802 17.073-10.34 5.72-4.92 13.813-7.209 20.72-4.26C73.523 9.49 77.136 17.49 83.048 16.967c3.372-.75 6.572-.687 10.365.351l.858-.364c.124-.713.108-1.492.008-1.634-.34-.48-1.131-.844-2.09-1.384-.544-.308-1.005-1.796-1.692-1.995-4.412-1.28 1.066-3.869-1.85-7.58-2.928 1.703-3.358 3.72-2.562 6.3.795 2.579-2.597 6.601-10.946-1.044-8.35-7.646-17.698-13.29-28.05-6.733C36.65 9.496 29.125 27.135 0 15.252zm30.903 5.881c5.208-.947 9.25-2.563 16.306-8.607 6.557-5.397 14.763-6.97 21.143-2.382 1.017.73 1.877 1.61 2.521 2.62-2.998-1.617-7.992-3.193-14.368-1.114-.298.091-.595.194-.89.31-7.733 3.031-11.064 8.967-24.712 9.173zM59.711 34.91s10.3.681 15.024 10.224c-.744-4.833-4.607-10.468-12.039-12.584 0 0 3.94-10.79-4.805-18.992-.507.113-1.004.263-1.48.45-1.915.751-3.648 1.76-5.392 2.84-1.218.754-2.393 1.49-3.594 2.177 5.011 1.447 11.023 5.4 12.286 15.885zm-33.55 10.07c29.496-4.849 55.407.36 72.048 17.02C83.316 45.047 62.182 37.37 26.16 44.98zm61.242-14.303l7.893 9.976H92.8l-6.784-8.583-3.758 3.823v4.76h-1.992V22.929h1.992v10.584l10.138-10.584h2.572l-7.565 7.748z" mask="url(#1s31ttcr3b)"/>
            </g>
        </g>
    </g>
</svg>
